<?xml version="1.0" encoding="utf-8"?>
<!-- Generator: Adobe Illustrator 24.2.1, SVG Export Plug-In . SVG Version: 6.00 Build 0)  -->
<svg version="1.1" id="Warstwa_1" xmlns="http://www.w3.org/2000/svg" xmlns:xlink="http://www.w3.org/1999/xlink" x="0px" y="0px"
	 width="1035px" height="316px" viewBox="0 0 1035 316" style="enable-background:new 0 0 1035 316;" xml:space="preserve">
<style type="text/css">
	.st0{fill-rule:evenodd;clip-rule:evenodd;}
</style>
<path class="st0" d="M25.1,97.9c7.7,4.7,16.3,7,25.8,7c9.4,0,18-2.3,25.8-7c7.7-4.8,13.8-11.1,18.2-19c4.5-8,6.7-16.8,6.7-26.3
	s-2.2-18.2-6.7-26.2c-4.4-8-10.5-14.4-18.2-19c-7.7-4.8-16.3-7.1-25.8-7.1c-9.4,0-18,2.4-25.8,7.1c-7.7,4.7-13.9,11-18.3,19
	C2.3,34.3,0.1,43,0.1,52.5s2.2,18.3,6.6,26.3C11.2,86.8,17.3,93.1,25.1,97.9z M74.3,94.4c-7.1,4.4-14.9,6.6-23.5,6.6
	c-8.6,0-16.5-2.2-23.7-6.6C20.1,90,14.4,84.1,10.2,76.8c-4.1-7.5-6.2-15.5-6.2-24.2s2.1-16.7,6.2-24.1c4.2-7.5,9.8-13.4,16.9-17.8
	c7.2-4.4,15.1-6.6,23.7-6.6c8.6,0,16.4,2.2,23.5,6.6c7.2,4.4,12.8,10.3,16.9,17.8c4.2,7.4,6.3,15.4,6.3,24.1s-2.1,16.8-6.3,24.2
	C87.2,84.1,81.5,90,74.3,94.4z M37.1,82.4c4.3,3.1,9.4,4.6,15.4,4.6c6.6,0,11.7-2.4,15.3-7.1c3.6-4.8,5.6-10.2,6-16.4h-3.4
	c-0.7,5.6-2.4,10.4-5.2,14.3c-2.8,3.9-7,5.9-12.7,5.9c-5.6,0-9.7-3-12.2-9c-2.5-6.1-3.8-12.6-3.8-19.6c0-21.3,5.4-31.9,16.2-31.9
	c2.2,0,4.7,0.9,7.3,2.8c2.6,1.9,4.9,4.4,6.7,7.6c1.9,3.2,3,6.5,3.4,10.1h2.5v-23h-2.5c0,1.1-0.3,2.2-1,3.2c-0.6,1-1.3,1.5-2.1,1.5
	c-0.7,0-1.2,0-1.5-0.1c-0.3-0.1-0.7-0.4-1.3-0.8c-3.9-3.1-7.7-4.6-11.5-4.6c-5.9,0-11,1.5-15.3,4.5c-4.3,3-7.6,7.2-9.9,12.6
	c-2.2,5.3-3.4,11.4-3.4,18.2c0,5.3,1.1,10.5,3.2,15.4C29.6,75.3,32.8,79.3,37.1,82.4z"/>
<g>
	<path d="M156.6,260.5c6.2-15.8,19.9-32.8,41.4-51l42.2-36.1c13.8-11.4,24.3-24,31.5-37.8c7.2-13.8,10.8-29.6,10.8-47.5
		c0-22.9-5.6-40.5-16.7-53c-11.2-12.5-27-18.7-47.5-18.7c-9.4,0-18.4,2.2-27.1,6.6c-8.7,4.4-15.7,10.2-21.1,17.4
		c-5.4,7.2-8.1,14.6-8.1,22.2c0,7,1.6,12.3,4.8,15.6c3.2,3.4,7.6,5.5,13.2,6.4c9.4,1.5,16.3,4.6,20.9,9.5c4.5,4.8,6.8,10.6,6.8,17.4
		c0,5.6-2,10.3-5.9,14.1c-4,3.8-9.5,5.7-16.5,5.7c-12,0-22-4.8-29.9-14.3c-7.9-9.5-11.9-22.1-11.9-37.6c0-15,3.7-28.4,11.2-40.5
		c7.5-12,17.9-21.4,31.2-28.2c13.3-6.7,28.2-10.1,44.7-10.1c18.8,0,35.6,3.5,50.6,10.6s26.7,17.2,35.2,30.4
		c8.5,13.2,12.8,28.8,12.8,46.6c0,17.9-6.3,34-18.9,48.4c-12.6,14.4-29.2,28.9-49.7,43.6l-43.1,33.4c-12.3,8.5-21.8,16.7-28.4,24.4
		c-6.6,7.8-9.9,15.8-9.9,24c0,7,4.5,10.6,13.6,10.6h83.2c11.7,0,20-2.6,24.9-7.7c4.8-5.1,8.1-12.4,9.9-21.8l4.8-26h9.7l-6.2,91.5
		H147.4C147.4,292.4,150.4,276.4,156.6,260.5z"/>
	<path d="M416.2,293.1c-16.1-15-28.7-34.5-37.6-58.7c-9-24.2-13.4-49.6-13.4-76.3c0-26.7,4.5-52.1,13.4-76.3
		c8.9-24.2,21.5-43.8,37.6-58.7c16.1-15,34.6-22.4,55.4-22.4c20.5,0,38.9,7.5,55.2,22.4c16.3,15,28.9,34.5,37.8,58.7
		c8.9,24.2,13.4,49.7,13.4,76.3c0,26.7-4.5,52.1-13.4,76.3c-9,24.2-21.6,43.8-37.8,58.7c-16.3,15-34.7,22.4-55.2,22.4
		C450.8,315.5,432.3,308,416.2,293.1z M519.8,260.1c7.8-27.6,11.7-61.6,11.7-102.1c0-40.5-3.9-74.5-11.7-102.1
		C512,28.4,496,14.6,471.6,14.6c-24.4,0-40.4,13.7-48.2,41.1c-7.8,27.4-11.7,61.5-11.7,102.3c0,40.8,3.9,74.9,11.7,102.3
		c7.8,27.4,23.8,41.1,48.2,41.1C496,301.4,512,287.7,519.8,260.1z"/>
	<path d="M623,260.5c6.2-15.8,19.9-32.8,41.4-51l42.2-36.1c13.8-11.4,24.3-24,31.5-37.8c7.2-13.8,10.8-29.6,10.8-47.5
		c0-22.9-5.6-40.5-16.7-53c-11.2-12.5-27-18.7-47.5-18.7c-9.4,0-18.4,2.2-27.1,6.6c-8.7,4.4-15.7,10.2-21.1,17.4
		c-5.4,7.2-8.1,14.6-8.1,22.2c0,7,1.6,12.3,4.8,15.6c3.2,3.4,7.6,5.5,13.2,6.4c9.4,1.5,16.3,4.6,20.9,9.5c4.5,4.8,6.8,10.6,6.8,17.4
		c0,5.6-2,10.3-5.9,14.1c-4,3.8-9.5,5.7-16.5,5.7c-12,0-22-4.8-29.9-14.3c-7.9-9.5-11.9-22.1-11.9-37.6c0-15,3.7-28.4,11.2-40.5
		c7.5-12,17.9-21.4,31.2-28.2c13.3-6.7,28.2-10.1,44.7-10.1c18.8,0,35.6,3.5,50.6,10.6s26.7,17.2,35.2,30.4
		c8.5,13.2,12.8,28.8,12.8,46.6c0,17.9-6.3,34-18.9,48.4c-12.6,14.4-29.2,28.9-49.7,43.6l-43.1,33.4c-12.3,8.5-21.8,16.7-28.4,24.4
		c-6.6,7.8-9.9,15.8-9.9,24c0,7,4.5,10.6,13.6,10.6h83.2c11.7,0,20-2.6,24.9-7.7c4.8-5.1,8.1-12.4,9.9-21.8l4.8-26h9.7l-6.2,91.5
		H613.7C613.7,292.4,616.8,276.4,623,260.5z"/>
	<path d="M863.2,294.4h42.2c4.4,0,7.5-0.9,9.5-2.6c1.9-1.8,2.9-4.7,2.9-8.8v-216h-54.6V51.1h24.2c15.8,0,28.7-4.2,38.5-12.8
		c9.8-8.5,15.9-18.8,18.3-30.8h14.1V283c0,4.1,0.9,7,2.9,8.8c1.9,1.8,5.1,2.6,9.5,2.6h42.2v14.1H863.2V294.4z"/>
</g>
</svg>
